<?xml version="1.0" encoding="UTF-8" standalone="no"?>
<svg
   xmlns:dc="http://purl.org/dc/elements/1.1/"
   xmlns:cc="http://creativecommons.org/ns#"
   xmlns:rdf="http://www.w3.org/1999/02/22-rdf-syntax-ns#"
   xmlns:svg="http://www.w3.org/2000/svg"
   xmlns="http://www.w3.org/2000/svg"
   xmlns:sodipodi="http://sodipodi.sourceforge.net/DTD/sodipodi-0.dtd"
   xmlns:inkscape="http://www.inkscape.org/namespaces/inkscape"
   version="1.1"
   id="svg2"
   width="390.07999"
   height="390.07999"
   viewBox="0 0 390.07999 390.07999"
   sodipodi:docname="split_icon.svg"
   inkscape:export-filename="D:\R3\iMESc\meta\split_icon3.png"
   inkscape:export-xdpi="100"
   inkscape:export-ydpi="100"
   inkscape:version="1.0.2-2 (e86c870879, 2021-01-15)">
  <metadata
     id="metadata8">
    <rdf:RDF>
      <cc:Work
         rdf:about="">
        <dc:format>image/svg+xml</dc:format>
        <dc:type
           rdf:resource="http://purl.org/dc/dcmitype/StillImage" />
        <dc:title></dc:title>
      </cc:Work>
    </rdf:RDF>
  </metadata>
  <defs
     id="defs6" />
  <sodipodi:namedview
     pagecolor="#ffffff"
     bordercolor="#666666"
     borderopacity="1"
     objecttolerance="10"
     gridtolerance="10"
     guidetolerance="10"
     inkscape:pageopacity="0"
     inkscape:pageshadow="2"
     inkscape:window-width="1366"
     inkscape:window-height="697"
     id="namedview4"
     showgrid="false"
     inkscape:zoom="0.64858493"
     inkscape:cx="95.232072"
     inkscape:cy="275.89294"
     inkscape:window-x="-8"
     inkscape:window-y="171"
     inkscape:window-maximized="1"
     inkscape:current-layer="g10" />
  <g
     inkscape:groupmode="layer"
     inkscape:label="Image"
     id="g10">
    <path
       style="opacity:1;fill:#000000;fill-opacity:1;stroke-width:1"
       d="m 193.26074,389.79633 c -0.264,-0.13987 -1.056,-0.51833 -1.76,-0.84105 -1.80564,-0.82765 -57.41441,-56.29523 -58.73509,-58.58592 -0.81351,-1.41104 -0.94491,-1.96791 -0.94491,-4.00429 0,-2.15597 0.0955,-2.5071 1.07896,-3.96749 1.22859,-1.82435 13.7833,-14.51764 16.665,-16.84896 1.10584,-0.89462 2.24605,-1.54974 2.72,-1.56281 0.44882,-0.0124 1.09412,-0.1314 1.43399,-0.26452 0.95594,-0.3744 3.81169,0.42983 5.35243,1.50733 0.76429,0.5345 4.77247,4.36659 8.90706,8.51575 4.1346,4.14916 7.7706,7.54393 8.08,7.54393 0.53238,0 0.56256,-1.4757 0.56256,-27.50874 0,-26.86958 -0.0144,-27.51643 -0.61897,-27.84 -0.41917,-0.22434 -16.94027,-0.33126 -51.18425,-0.33126 -33.899402,0 -51.071451,-0.10998 -52.101031,-0.3337 -2.11659,-0.45992 -4.23921,-2.09318 -5.21575,-4.0133 l -0.8,-1.573 -0.105769,-11.52 c -0.113456,-12.35722 0.03668,-14.0687 1.416131,-16.14276 0.929468,-1.39749 3.020758,-2.74998 4.933658,-3.19073 2.00498,-0.46196 242.146971,-0.46196 244.151951,0 3.09269,0.71258 5.29017,2.8245 6.03004,5.7952 0.54016,2.16896 0.50768,23.32255 -0.0385,25.05829 -0.95993,3.05073 -2.88275,4.93026 -5.71086,5.58233 -0.90479,0.20862 -19.23821,0.32478 -52.05769,0.32985 -34.29536,0.005 -50.86099,0.11483 -51.28,0.33908 -0.60458,0.32357 -0.61897,0.97042 -0.61897,27.84 0,26.03304 0.0302,27.50874 0.56256,27.50874 0.3094,0 3.9454,-3.39477 8.08,-7.54393 4.13459,-4.14916 8.14277,-7.98125 8.90706,-8.51575 1.54074,-1.0775 4.39649,-1.88173 5.35243,-1.50733 0.33987,0.13312 0.98517,0.25215 1.43399,0.26452 1.21703,0.0335 3.84026,2.31455 11.45659,9.96197 8.50831,8.54305 8.80358,8.94532 8.95736,12.20369 0.10722,2.27174 0.0403,2.59501 -0.86179,4.16 -1.35071,2.34339 -56.9223,57.7976 -58.7682,58.64403 -0.704,0.32285 -1.53004,0.70979 -1.83565,0.85987 -0.68554,0.33671 -2.79492,0.32506 -3.44434,-0.0189 z M 72.620739,161.17485 c -1.82631,-0.49495 -3.69243,-1.76081 -4.630169,-3.14082 -1.353476,-1.99181 -1.508736,-3.78358 -1.3956,-16.10572 l 0.105769,-11.52 0.8,-1.573 c 0.97654,-1.92012 3.09916,-3.55338 5.21575,-4.0133 1.02958,-0.22372 18.201629,-0.3337 52.101031,-0.3337 34.24398,0 50.76508,-0.10692 51.18425,-0.33126 0.60458,-0.32357 0.61897,-0.97042 0.61897,-27.840003 0,-26.034064 -0.0302,-27.508744 -0.56261,-27.508744 -0.30944,0 -3.87344,3.32496 -7.92,7.38879 -4.04657,4.06383 -8.07739,7.9282 -8.95739,8.587484 -2.95085,2.21073 -6.33487,2.22132 -9.28,0.0291 -2.33133,-1.735384 -15.71536,-15.205484 -16.99218,-17.101454 -0.9933,-1.47497 -1.08782,-1.82088 -1.08782,-3.98065 0,-2.03639 0.1314,-2.59324 0.94491,-4.00427 1.37177,-2.37932 56.96558,-57.8124672 58.73509,-58.5653492 0.704,-0.29953503 1.53004,-0.68163303 1.83565,-0.84910703 0.71571,-0.392207 2.65298,-0.392207 3.36869,0 0.30561,0.167474 1.13165,0.549572 1.83565,0.84910703 1.80729,0.768957 57.36617,56.1907792 58.7682,58.6232292 0.90204,1.56497 0.96901,1.88825 0.86179,4.16 -0.15451,3.27382 -0.49107,3.73263 -8.96337,12.21926 -7.48242,7.49507 -10.26022,9.923904 -11.34976,9.923904 -0.39335,0 -1.05916,0.13078 -1.47956,0.29062 -0.78038,0.2967 -2.8374,-0.043 -4.3973,-0.72621 -0.44,-0.19271 -4.55216,-4.061544 -9.13813,-8.597394 -4.58597,-4.53586 -8.58197,-8.24702 -8.88,-8.24702 -0.50495,0 -0.54187,1.87394 -0.54187,27.508744 0,26.869583 0.0144,27.516433 0.61897,27.840003 0.41901,0.22425 16.98464,0.33378 51.28,0.33908 32.28216,0.005 51.15952,0.12281 52.03511,0.32478 2.77575,0.64026 4.836,2.64412 5.74106,5.58391 0.53878,1.75007 0.56486,22.91765 0.031,25.06178 -0.73987,2.9707 -2.93735,5.08262 -6.03004,5.7952 -2.235,0.51493 -242.570691,0.42945 -244.476131,-0.087 z"
       id="path837" />
  </g>
</svg>
